Coordinates
version=1
nRows=22
nColumns=24
inDegrees=yes

Units are S.I. units (second, meters, Newtons, ...)
Angles are in degrees.

endheader
time	pelvis_tilt	pelvis_list	pelvis_rotation	pelvis_tx	pelvis_ty	pelvis_tz	hip_flexion_r	hip_adduction_r	hip_rotation_r	knee_angle_r	ankle_angle_r	subtalar_angle_r	mtp_angle_r	hip_flexion_l	hip_adduction_l	hip_rotation_l	knee_angle_l	ankle_angle_l	subtalar_angle_l	mtp_angle_l	lumbar_extension	lumbar_bending	lumbar_rotation
     10.45000000	     45.37842080	     -4.60250411	     -0.83045107	      0.57455701	      1.08551270	     -0.34043684	     26.77111389	     -6.63303311	     -8.18269112	    -73.81747629	    -27.81170035	    -19.04513568	      0.00000000	     26.93012314	    -18.97084426	     -6.73476484	    -73.03865594	    -28.18850483	      3.52456563	      0.00000000	      0.00000000	      0.00000000	      0.00000000
     10.46000000	     45.37430830	     -4.60439129	     -0.82916997	      0.57456453	      1.08549437	     -0.34043924	     26.77663751	     -6.63185569	     -8.18404611	    -73.82488810	    -27.79968991	    -19.03977805	      0.00000000	     26.93442854	    -18.98373648	     -6.70790438	    -73.13738243	    -28.19722825	      3.50925536	      0.00000000	      0.00000000	      0.00000000	      0.00000000
     10.47000000	     45.37204339	     -4.60553683	     -0.82905129	      0.57456600	      1.08548550	     -0.34044168	     26.78134576	     -6.63154814	     -8.18456705	    -73.83206269	    -27.78625600	    -19.03390011	      0.00000000	     26.93606155	    -18.99771534	     -6.67973564	    -73.24752176	    -28.19992636	      3.49021427	      0.00000000	      0.00000000	      0.00000000	      0.00000000
     10.48000000	     45.37133442	     -4.60607976	     -0.82954861	      0.57456666	      1.08548140	     -0.34044377	     26.78448860	     -6.63166593	     -8.18463625	    -73.83881930	    -27.77347218	    -19.02684801	      0.00000000	     26.93546299	    -19.01247366	     -6.64979938	    -73.36779712	    -28.19656756	      3.46946857	      0.00000000	      0.00000000	      0.00000000	      0.00000000
     10.49000000	     45.37127578	     -4.60649615	     -0.82995922	      0.57456955	      1.08547600	     -0.34044446	     26.78560069	     -6.63139760	     -8.18451723	    -73.84524967	    -27.76285067	    -19.01797363	      0.00000000	     26.93316340	    -19.02725739	     -6.61778516	    -73.49703438	    -28.18864048	      3.45049823	      0.00000000	      0.00000000	      0.00000000	      0.00000000
     10.50000000	     45.37104196	     -4.60726892	     -0.82985146	      0.57457443	      1.08547180	     -0.34044624	     26.78511601	     -6.63006488	     -8.18414088	    -73.85140032	    -27.75472511	    -19.00703022	      0.00000000	     26.92971214	    -19.04140809	     -6.58325183	    -73.63442514	    -28.17872475	      3.43732431	      0.00000000	      0.00000000	      0.00000000	      0.00000000
     10.51000000	     45.37029047	     -4.60862246	     -0.82930945	      0.57458048	      1.08547274	     -0.34045202	     26.78420617	     -6.62750856	     -8.18302593	    -73.85720075	    -27.74827629	    -18.99440953	      0.00000000	     26.92580911	    -19.05482679	     -6.54539002	    -73.77962990	    -28.16960274	      3.43308309	      0.00000000	      0.00000000	      0.00000000	      0.00000000
     10.52000000	     45.36897360	     -4.61053362	     -0.82882229	      0.57458727	      1.08547413	     -0.34046011	     26.78395046	     -6.62404679	     -8.18051925	    -73.86276797	    -27.74221729	    -18.98111842	      0.00000000	     26.92240696	    -19.06797145	     -6.50320813	    -73.93269359	    -28.16332549	      3.43863692	      0.00000000	      0.00000000	      0.00000000	      0.00000000
     10.53000000	     45.36713212	     -4.61285494	     -0.82888859	      0.57459527	      1.08546966	     -0.34046691	     26.78472486	     -6.62009849	     -8.17630772	    -73.86864893	    -27.73567426	    -18.96856827	      0.00000000	     26.92067029	    -19.08155461	     -6.45608443	    -74.09374683	    -28.16068922	      3.45185129	      0.00000000	      0.00000000	      0.00000000	      0.00000000
     10.54000000	     45.36491884	     -4.61548451	     -0.82958885	      0.57460635	      1.08546077	     -0.34047127	     26.78627023	     -6.61591602	     -8.17087274	    -73.87562162	    -27.72877067	    -18.95829061	      0.00000000	     26.92168982	    -19.09624108	     -6.40429470	    -74.26260921	    -28.16128963	      3.46791835	      0.00000000	      0.00000000	      0.00000000	      0.00000000
     10.55000000	     45.36251120	     -4.61851287	     -0.83040510	      0.57461992	      1.08545081	     -0.34047476	     26.78816610	     -6.61154596	     -8.16562597	    -73.88416753	    -27.72266038	    -18.95163868	      0.00000000	     26.92590450	    -19.11234742	     -6.34918697	    -74.43861379	    -28.16399163	      3.48067022	      0.00000000	      0.00000000	      0.00000000	      0.00000000
     10.56000000	     45.36000186	     -4.62226110	     -0.83045751	      0.57463081	      1.08543766	     -0.34047811	     26.79030079	     -6.60698986	     -8.16257238	    -73.89398769	    -27.71901900	    -18.94950083	      0.00000000	     26.93265961	    -19.12959756	     -6.29285497	    -74.62070049	    -28.16752397	      3.48441013	      0.00000000	      0.00000000	      0.00000000	      0.00000000
     10.57000000	     45.35756936	     -4.62706383	     -0.82909368	      0.57463783	      1.08541816	     -0.34048052	     26.79297389	     -6.60251936	     -8.16351976	    -73.90394697	    -27.71923173	    -18.95205718	      0.00000000	     26.94046756	    -19.14723587	     -6.23736668	    -74.80745587	    -28.17093488	      3.47558947	      0.00000000	      0.00000000	      0.00000000	      0.00000000
     10.58000000	     45.35559548	     -4.63281624	     -0.82639079	      0.57464770	      1.08539434	     -0.34048433	     26.79651863	     -6.59881810	     -8.16921836	    -73.91263128	    -27.72361283	    -18.95863435	      0.00000000	     26.94772265	    -19.16449713	     -6.18392096	    -74.99704828	    -28.17375970	      3.45377212	      0.00000000	      0.00000000	      0.00000000	      0.00000000
     10.59000000	     45.35434482	     -4.63880454	     -0.82311972	      0.57466457	      1.08537098	     -0.34049438	     26.80073819	     -6.59670548	     -8.17889455	    -73.91920759	    -27.73097865	    -18.96771867	      0.00000000	     26.95317058	    -19.18090706	     -6.13254004	    -75.18735463	    -28.17594370	      3.42167231	      0.00000000	      0.00000000	      0.00000000	      0.00000000
     10.60000000	     45.35369402	     -4.64410190	     -0.82021739	      0.57468309	      1.08534874	     -0.34051000	     26.80464487	     -6.59664388	     -8.19034501	    -73.92391640	    -27.73880029	    -18.97717122	      0.00000000	     26.95604071	    -19.19616221	     -6.08253476	    -75.37635534	    -28.17769967	      3.38439052	      0.00000000	      0.00000000	      0.00000000	      0.00000000
     10.61000000	     45.35363562	     -4.64794079	     -0.81833470	      0.57469645	      1.08532801	     -0.34052429	     26.80693661	     -6.59843970	     -8.20060062	    -73.92774508	    -27.74393528	    -18.98464411	      0.00000000	     26.95609554	    -19.21005615	     -6.03319813	    -75.56261047	    -28.17941236	      3.34813868	      0.00000000	      0.00000000	      0.00000000	      0.00000000
     10.62000000	     45.35489984	     -4.64979755	     -0.81783882	      0.57470359	      1.08531681	     -0.34053307	     26.80682661	     -6.60135898	     -8.20694364	    -73.93162429	    -27.74366933	    -18.98812420	      0.00000000	     26.95345897	    -19.22266533	     -5.98413328	    -75.74568451	    -28.18157023	      3.31879809	      0.00000000	      0.00000000	      0.00000000	      0.00000000
     10.63000000	     45.35864555	     -4.64966551	     -0.81898975	      0.57470580	      1.08532072	     -0.34053776	     26.80435969	     -6.60446177	     -8.20780812	    -73.93594105	    -27.73668397	    -18.98643896	      0.00000000	     26.94819193	    -19.23435895	     -5.93528562	    -75.92631520	    -28.18462232	      3.30062152	      0.00000000	      0.00000000	      0.00000000	      0.00000000
     10.64000000	     45.36575597	     -4.64842116	     -0.82203664	      0.57470425	      1.08533082	     -0.34054099	     26.80011257	     -6.60690023	     -8.20321363	    -73.94062775	    -27.72360866	    -18.97955087	      0.00000000	     26.94024512	    -19.24551705	     -5.88693602	    -76.10596889	    -28.18864798	      3.29529195	      0.00000000	      0.00000000	      0.00000000	      0.00000000
     10.65000000	     45.37648015	     -4.64760884	     -0.82719849	      0.57469998	      1.08533055	     -0.34054884	     26.79466772	     -6.60814452	     -8.19459712	    -73.94547990	    -27.70690935	    -18.96859121	      0.00000000	     26.93005142	    -19.25638231	     -5.83956867	    -76.28580271	    -28.19290515	      3.30151015	      0.00000000	      0.00000000	      0.00000000	      0.00000000
     10.66000000	     45.39029214	     -4.64867835	     -0.83431101	      0.57469018	      1.08530799	     -0.34057438	     26.78836795	     -6.60812571	     -8.18416844	    -73.95024810	    -27.69006152	    -18.95568738	      0.00000000	     26.91900604	    -19.26717767	     -5.79355465	    -76.46563774	    -28.19557215	      3.31529381	      0.00000000	      0.00000000	      0.00000000	      0.00000000
